<svg width="90" height="139" viewBox="0 0 90 139" fill="none" xmlns="http://www.w3.org/2000/svg">
<path d="M0 5.86498C0 2.62584 2.65095 0 5.92105 0H36.7105C53.0611 0 66.3158 13.1292 66.3158 29.3249C66.3158 45.5206 53.0611 58.6498 36.7105 58.6498H5.92105C2.65095 58.6498 0 56.0239 0 52.7848V5.86498Z" fill="black"/>
<path d="M0 86.2152C0 82.9761 2.65095 80.3502 5.92105 80.3502H54.4737C74.0943 80.3502 90 96.1053 90 115.54V133.135C90 136.374 87.3491 139 84.0789 139H5.92105C2.65094 139 0 136.374 0 133.135V86.2152Z" fill="black"/>
</svg>
